<?xml version="1.0" standalone="no"?>
<!DOCTYPE svg PUBLIC "-//W3C//DTD SVG 20010904//EN"
 "http://www.w3.org/TR/2001/REC-SVG-20010904/DTD/svg10.dtd">
<svg version="1.0" xmlns="http://www.w3.org/2000/svg"
 width="512.000000pt" height="512.000000pt" viewBox="0 0 512.000000 512.000000"
 preserveAspectRatio="xMidYMid meet">
<metadata>
Created by potrace 1.14, written by Peter Selinger 2001-2017
</metadata>
<g transform="translate(0.000000,512.000000) scale(0.100000,-0.100000)"
fill="#000000" stroke="none">
<path d="M1172 4978 c-7 -7 -12 -9 -12 -5 0 14 -96 -42 -129 -75 -19 -18 -45
-58 -60 -88 l-26 -55 -2 -990 c-2 -545 -3 -1004 -3 -1022 l0 -32 -241 -1
c-239 0 -289 -4 -289 -21 0 -5 -5 -9 -11 -9 -14 0 -33 -24 -54 -65 -13 -27
-15 -133 -13 -827 3 -787 3 -797 24 -824 51 -69 50 -69 330 -72 l254 -3 0 -57
c1 -31 2 -149 3 -262 l2 -205 33 -65 c38 -76 80 -113 162 -146 l59 -24 1578 2
1578 3 46 21 c85 40 133 95 177 206 10 23 15 296 14 663 0 69 4 115 11 124 9
11 9 13 0 8 -15 -10 -15 52 1 72 8 11 8 13 -1 8 -15 -10 -15 52 1 72 8 11 8
13 0 8 -8 -5 -12 4 -12 28 0 20 5 35 12 35 7 0 8 3 0 8 -15 10 -16 192 -1 192
8 0 9 3 1 8 -15 10 -15 183 -1 201 9 11 9 13 0 8 -15 -10 -15 52 1 72 8 11 8
13 -1 8 -15 -10 -15 52 1 72 8 11 8 13 0 8 -8 -5 -12 4 -12 28 0 20 5 35 12
35 7 0 8 3 0 8 -15 10 -16 192 -1 192 8 0 9 3 1 8 -15 10 -15 183 -1 201 9 11
9 13 0 8 -15 -10 -15 52 1 72 8 11 8 13 -1 8 -15 -10 -15 52 1 72 8 11 8 13 0
8 -8 -5 -12 4 -12 28 0 20 5 35 12 35 7 0 8 3 0 8 -15 10 -16 192 -1 192 8 0
9 3 1 8 -15 10 -15 183 -1 201 9 11 9 13 0 8 -15 -10 -15 52 1 72 8 11 8 13
-1 8 -15 -10 -15 52 1 72 8 11 8 13 0 8 -8 -5 -12 4 -12 28 0 20 5 35 12 35 7
0 8 3 0 8 -15 10 -16 185 -1 194 9 6 9 8 0 8 -16 0 -15 92 1 102 8 6 7 8 -1 8
-7 0 -13 7 -13 15 0 8 6 15 13 15 8 0 9 3 1 8 -14 9 -14 43 0 61 8 11 8 13 -1
7 -10 -5 -13 3 -13 28 0 20 -4 36 -8 36 -4 0 -44 36 -87 80 -44 44 -225 225
-403 403 -178 177 -412 411 -520 520 l-196 197 -1096 0 c-830 0 -1099 -3
-1108 -12z"/>
</g>
</svg>
